<svg width="56" height="56" viewBox="0 0 56 56" fill="none" xmlns="http://www.w3.org/2000/svg">
<circle opacity="0.5" cx="28" cy="28" r="27" stroke="#9FB6FA" stroke-width="1.5"/>
<path d="M33 18.4301H23C20 18.4301 18 20.4301 18 23.4301V29.4301C18 32.4301 20 34.4301 23 34.4301H27L31.45 37.3901C32.11 37.8301 33 37.3601 33 36.5601V34.4301C36 34.4301 38 32.4301 38 29.4301V23.4301C38 20.4301 36 18.4301 33 18.4301ZM31.5 27.2501H24.5C24.09 27.2501 23.75 26.9101 23.75 26.5001C23.75 26.0901 24.09 25.7501 24.5 25.7501H31.5C31.91 25.7501 32.25 26.0901 32.25 26.5001C32.25 26.9101 31.91 27.2501 31.5 27.2501Z" fill="#3D5BF6"/>
</svg>
