<svg width="45" height="44" viewBox="0 0 45 44" fill="none" xmlns="http://www.w3.org/2000/svg">
<rect x="0.5" y="6.10352e-05" width="44" height="44" rx="22" fill="#13B97D"/>
<path d="M31.2358 20.9642L29.8425 19.5709C29.6041 19.3325 29.4116 18.865 29.4116 18.535V16.555C29.4116 15.7484 28.7516 15.0884 27.945 15.0884H25.9741C25.6441 15.0884 25.1766 14.8959 24.9383 14.6575L23.545 13.2642C22.9766 12.6959 22.0416 12.6959 21.4733 13.2642L20.0616 14.6575C19.8325 14.8959 19.365 15.0884 19.0258 15.0884H17.055C16.2483 15.0884 15.5883 15.7484 15.5883 16.555V18.5259C15.5883 18.8559 15.3958 19.3234 15.1575 19.5617L13.7641 20.955C13.1958 21.5234 13.1958 22.4584 13.7641 23.0267L15.1575 24.42C15.3958 24.6584 15.5883 25.1259 15.5883 25.4559V27.4267C15.5883 28.2334 16.2483 28.8934 17.055 28.8934H19.0258C19.3558 28.8934 19.8233 29.0859 20.0616 29.3242L21.455 30.7175C22.0233 31.2859 22.9583 31.2859 23.5266 30.7175L24.92 29.3242C25.1583 29.0859 25.6258 28.8934 25.9558 28.8934H27.9266C28.7333 28.8934 29.3933 28.2334 29.3933 27.4267V25.4559C29.3933 25.1259 29.5858 24.6584 29.8241 24.42L31.2175 23.0267C31.8133 22.4675 31.8133 21.5325 31.2358 20.9642ZM18.8333 19.25C18.8333 18.7459 19.2458 18.3334 19.75 18.3334C20.2541 18.3334 20.6666 18.7459 20.6666 19.25C20.6666 19.7542 20.2633 20.1667 19.75 20.1667C19.2458 20.1667 18.8333 19.7542 18.8333 19.25ZM20.2358 25.2359C20.0983 25.3734 19.9241 25.4375 19.75 25.4375C19.5758 25.4375 19.4016 25.3734 19.2641 25.2359C18.9983 24.97 18.9983 24.53 19.2641 24.2642L24.7641 18.7642C25.03 18.4984 25.47 18.4984 25.7358 18.7642C26.0016 19.03 26.0016 19.47 25.7358 19.7359L20.2358 25.2359ZM25.25 25.6667C24.7366 25.6667 24.3241 25.2542 24.3241 24.75C24.3241 24.2459 24.7366 23.8334 25.2408 23.8334C25.745 23.8334 26.1575 24.2459 26.1575 24.75C26.1575 25.2542 25.7541 25.6667 25.25 25.6667Z" fill="white"/>
</svg>
