<svg width="45" height="44" viewBox="0 0 45 44" fill="none" xmlns="http://www.w3.org/2000/svg">
<rect x="0.5" y="0.00012207" width="44" height="44" rx="22" fill="#3F6DF6"/>
<path d="M26.8537 14.2634V12.8334C26.8537 12.4576 26.5421 12.1459 26.1662 12.1459C25.7904 12.1459 25.4787 12.4576 25.4787 12.8334V14.2084H19.5204V12.8334C19.5204 12.4576 19.2087 12.1459 18.8329 12.1459C18.4571 12.1459 18.1454 12.4576 18.1454 12.8334V14.2634C15.6704 14.4926 14.4696 15.9684 14.2862 18.1593C14.2679 18.4251 14.4879 18.6451 14.7446 18.6451H30.2546C30.5204 18.6451 30.7404 18.4159 30.7129 18.1593C30.5296 15.9684 29.3287 14.4926 26.8537 14.2634Z" fill="white"/>
<path d="M28.9167 24.7501C26.8908 24.7501 25.25 26.391 25.25 28.4168C25.25 29.1043 25.4425 29.7551 25.7817 30.3051C26.4142 31.3685 27.5783 32.0835 28.9167 32.0835C30.255 32.0835 31.4192 31.3685 32.0517 30.3051C32.3908 29.7551 32.5833 29.1043 32.5833 28.4168C32.5833 26.391 30.9425 24.7501 28.9167 24.7501ZM30.8142 28.0226L28.8617 29.8285C28.7333 29.9476 28.5592 30.0118 28.3942 30.0118C28.22 30.0118 28.0458 29.9476 27.9083 29.8101L27.0008 28.9026C26.735 28.6368 26.735 28.1968 27.0008 27.931C27.2667 27.6651 27.7067 27.6651 27.9725 27.931L28.4125 28.371L29.8792 27.0143C30.1542 26.7576 30.5942 26.776 30.8508 27.051C31.1075 27.326 31.0892 27.7568 30.8142 28.0226Z" fill="white"/>
<path d="M29.8333 20.0201H15.1667C14.6625 20.0201 14.25 20.4326 14.25 20.9368V26.5835C14.25 29.3335 15.625 31.1668 18.8333 31.1668H23.3525C23.985 31.1668 24.425 30.5526 24.2233 29.9568C24.04 29.4251 23.8842 28.8385 23.8842 28.4168C23.8842 25.6393 26.1483 23.3751 28.9258 23.3751C29.1917 23.3751 29.4575 23.3935 29.7142 23.4393C30.2642 23.5218 30.7592 23.091 30.7592 22.541V20.946C30.75 20.4326 30.3375 20.0201 29.8333 20.0201ZM19.9425 27.6926C19.7683 27.8576 19.53 27.9585 19.2917 27.9585C19.0533 27.9585 18.815 27.8576 18.6408 27.6926C18.4758 27.5185 18.375 27.2801 18.375 27.0418C18.375 26.8035 18.4758 26.5651 18.6408 26.391C18.7325 26.3085 18.8242 26.2443 18.9433 26.1985C19.2825 26.0518 19.6858 26.1343 19.9425 26.391C20.1075 26.5651 20.2083 26.8035 20.2083 27.0418C20.2083 27.2801 20.1075 27.5185 19.9425 27.6926ZM19.9425 24.4843C19.8967 24.521 19.8508 24.5576 19.805 24.5943C19.75 24.631 19.695 24.6585 19.64 24.6768C19.585 24.7043 19.53 24.7226 19.475 24.7318C19.4108 24.741 19.3467 24.7501 19.2917 24.7501C19.0533 24.7501 18.815 24.6493 18.6408 24.4843C18.4758 24.3101 18.375 24.0718 18.375 23.8335C18.375 23.5951 18.4758 23.3568 18.6408 23.1826C18.8517 22.9718 19.1725 22.871 19.475 22.9351C19.53 22.9443 19.585 22.9626 19.64 22.9901C19.695 23.0085 19.75 23.036 19.805 23.0726C19.8508 23.1093 19.8967 23.146 19.9425 23.1826C20.1075 23.3568 20.2083 23.5951 20.2083 23.8335C20.2083 24.0718 20.1075 24.3101 19.9425 24.4843ZM23.1508 24.4843C22.9767 24.6493 22.7383 24.7501 22.5 24.7501C22.2617 24.7501 22.0233 24.6493 21.8492 24.4843C21.6842 24.3101 21.5833 24.0718 21.5833 23.8335C21.5833 23.5951 21.6842 23.3568 21.8492 23.1826C22.1975 22.8435 22.8117 22.8435 23.1508 23.1826C23.3158 23.3568 23.4167 23.5951 23.4167 23.8335C23.4167 24.0718 23.3158 24.3101 23.1508 24.4843Z" fill="white"/>
</svg>
