<svg width="16" height="17" viewBox="0 0 16 17" fill="none" xmlns="http://www.w3.org/2000/svg">
<path d="M9.15327 2.84013L10.3266 5.1868C10.4866 5.51347 10.9133 5.8268 11.2733 5.8868L13.3999 6.24013C14.7599 6.4668 15.0799 7.45347 14.0999 8.4268L12.4466 10.0801C12.1666 10.3601 12.0133 10.9001 12.0999 11.2868L12.5733 13.3335C12.9466 14.9535 12.0866 15.5801 10.6533 14.7335L8.65994 13.5535C8.29994 13.3401 7.70661 13.3401 7.33994 13.5535L5.34661 14.7335C3.91994 15.5801 3.05327 14.9468 3.42661 13.3335L3.89994 11.2868C3.98661 10.9001 3.83327 10.3601 3.55327 10.0801L1.89994 8.4268C0.926606 7.45347 1.23994 6.4668 2.59994 6.24013L4.72661 5.8868C5.07994 5.8268 5.50661 5.51347 5.66661 5.1868L6.83994 2.84013C7.47994 1.5668 8.51994 1.5668 9.15327 2.84013Z" fill="#FFBA55"/>
</svg>
