<svg width="45" height="44" viewBox="0 0 45 44" fill="none" xmlns="http://www.w3.org/2000/svg">
<rect x="0.5" width="44" height="44" rx="22" fill="#FFBA55"/>
<path d="M22.4997 12.8333C17.4488 12.8333 13.333 16.9491 13.333 22C13.333 27.0508 17.4488 31.1666 22.4997 31.1666C27.5505 31.1666 31.6663 27.0508 31.6663 22C31.6663 16.9491 27.5505 12.8333 22.4997 12.8333ZM21.8122 18.3333C21.8122 17.9575 22.1238 17.6458 22.4997 17.6458C22.8755 17.6458 23.1872 17.9575 23.1872 18.3333V22.9166C23.1872 23.2925 22.8755 23.6041 22.4997 23.6041C22.1238 23.6041 21.8122 23.2925 21.8122 22.9166V18.3333ZM23.343 26.015C23.2972 26.1341 23.233 26.2258 23.1505 26.3175C23.0588 26.4 22.958 26.4641 22.848 26.51C22.738 26.5558 22.6188 26.5833 22.4997 26.5833C22.3805 26.5833 22.2613 26.5558 22.1513 26.51C22.0413 26.4641 21.9405 26.4 21.8488 26.3175C21.7663 26.2258 21.7022 26.1341 21.6563 26.015C21.6105 25.905 21.583 25.7858 21.583 25.6666C21.583 25.5475 21.6105 25.4283 21.6563 25.3183C21.7022 25.2083 21.7663 25.1075 21.8488 25.0158C21.9405 24.9333 22.0413 24.8691 22.1513 24.8233C22.3713 24.7316 22.628 24.7316 22.848 24.8233C22.958 24.8691 23.0588 24.9333 23.1505 25.0158C23.233 25.1075 23.2972 25.2083 23.343 25.3183C23.3888 25.4283 23.4163 25.5475 23.4163 25.6666C23.4163 25.7858 23.3888 25.905 23.343 26.015Z" fill="white"/>
</svg>
