<svg width="18" height="19" viewBox="0 0 18 19" fill="none" xmlns="http://www.w3.org/2000/svg">
<g clip-path="url(#clip0_509_4182)">
<path d="M6.53223 12.179C7.19602 11.5421 8.0803 11.1865 9.0002 11.1865C9.92009 11.1865 10.8044 11.5421 11.4682 12.179" stroke="#3D5BF6" stroke-width="1.2" stroke-linecap="round" stroke-linejoin="round"/>
<path d="M4.14844 9.78829C5.44599 8.52218 7.18708 7.81348 9 7.81348C10.8129 7.81348 12.554 8.52218 13.8516 9.78829" stroke="#3D5BF6" stroke-width="1.2" stroke-linecap="round" stroke-linejoin="round"/>
<path d="M1.76465 7.40463C3.69322 5.5041 6.29215 4.43872 8.9998 4.43872C11.7075 4.43872 14.3064 5.5041 16.235 7.40463" stroke="#3D5BF6" stroke-width="1.2" stroke-linecap="round" stroke-linejoin="round"/>
<path d="M9 15.4062C9.46599 15.4062 9.84375 15.0285 9.84375 14.5625C9.84375 14.0965 9.46599 13.7188 9 13.7188C8.53401 13.7188 8.15625 14.0965 8.15625 14.5625C8.15625 15.0285 8.53401 15.4062 9 15.4062Z" fill="#3D5BF6"/>
</g>
<defs>
<clipPath id="clip0_509_4182">
<rect width="18" height="18" fill="white" transform="translate(0 0.5)"/>
</clipPath>
</defs>
</svg>
